<svg width="1280" height="420" viewBox="0 0 1280 420" fill="none" xmlns="http://www.w3.org/2000/svg" role="img" aria-label="Initkit banner">
  <defs>
    <linearGradient id="bg" x1="0" y1="0" x2="1280" y2="420" gradientUnits="userSpaceOnUse">
      <stop stop-color="#101827"/>
      <stop offset="0.45" stop-color="#111827"/>
      <stop offset="1" stop-color="#172554"/>
    </linearGradient>
    <linearGradient id="accent" x1="96" y1="88" x2="392" y2="356" gradientUnits="userSpaceOnUse">
      <stop stop-color="#38BDF8"/>
      <stop offset="0.5" stop-color="#34D399"/>
      <stop offset="1" stop-color="#FDE68A"/>
    </linearGradient>
    <filter id="shadow" x="-20%" y="-20%" width="140%" height="140%">
      <feDropShadow dx="0" dy="24" stdDeviation="24" flood-color="#000000" flood-opacity="0.35"/>
    </filter>
  </defs>
  <rect width="1280" height="420" rx="36" fill="url(#bg)"/>
  <path d="M864 -40C992 21 1102 96 1194 185C1234 224 1267 265 1290 308V420H714C706 309 728 215 780 138C805 101 833 43 864 -40Z" fill="#1D4ED8" opacity="0.2"/>
  <path d="M0 333C148 284 293 272 434 298C575 324 711 387 842 488H0V333Z" fill="#10B981" opacity="0.12"/>
  <g filter="url(#shadow)">
    <rect x="84" y="82" width="256" height="256" rx="58" fill="#0F172A" stroke="url(#accent)" stroke-width="10"/>
    <path d="M134 142H287" stroke="#A7F3D0" stroke-width="14" stroke-linecap="round"/>
    <path d="M134 210H242" stroke="#FDE68A" stroke-width="14" stroke-linecap="round"/>
    <path d="M134 278H273" stroke="#F9A8D4" stroke-width="14" stroke-linecap="round"/>
    <circle cx="296" cy="278" r="12" fill="#34D399"/>
    <path d="M178 181L212 211L178 241" stroke="#E5E7EB" stroke-width="14" stroke-linecap="round" stroke-linejoin="round"/>
  </g>
  <text x="390" y="170" fill="#F8FAFC" font-family="Inter, ui-sans-serif, system-ui, -apple-system, BlinkMacSystemFont, Segoe UI, sans-serif" font-size="74" font-weight="800" letter-spacing="0">initkit</text>
  <text x="394" y="224" fill="#BAE6FD" font-family="Inter, ui-sans-serif, system-ui, -apple-system, BlinkMacSystemFont, Segoe UI, sans-serif" font-size="28" font-weight="600">one manifest to bootstrap your Linux workstation</text>
  <g font-family="JetBrains Mono, ui-monospace, SFMono-Regular, Menlo, monospace" font-size="22" font-weight="600">
    <rect x="394" y="264" width="104" height="38" rx="12" fill="#1F2937" stroke="#374151"/>
    <text x="414" y="290" fill="#A7F3D0">apt</text>
    <rect x="514" y="264" width="104" height="38" rx="12" fill="#1F2937" stroke="#374151"/>
    <text x="534" y="290" fill="#BAE6FD">dnf</text>
    <rect x="634" y="264" width="138" height="38" rx="12" fill="#1F2937" stroke="#374151"/>
    <text x="654" y="290" fill="#FDE68A">pacman</text>
    <rect x="788" y="264" width="118" height="38" rx="12" fill="#1F2937" stroke="#374151"/>
    <text x="808" y="290" fill="#F9A8D4">tui</text>
    <rect x="922" y="264" width="168" height="38" rx="12" fill="#1F2937" stroke="#374151"/>
    <text x="942" y="290" fill="#DDD6FE">native</text>
  </g>
  <text x="394" y="344" fill="#CBD5E1" font-family="Inter, ui-sans-serif, system-ui, -apple-system, BlinkMacSystemFont, Segoe UI, sans-serif" font-size="22">preview first • run safely • pause and resume • keep setup repeatable</text>
</svg>
